# xmcd
#
# Track frame offsets:
#	150
#	23960
#	38140
#	54961
#	68121
#	74210
#	87736
#	105919
#	125979
#	137134
#	155332
#	169250
#	185835
#	196579
#	210996
#	222262
#	236391
#	248275
#
# Disc length: 3533 seconds
#
# Revision: 0
# Processed by: cddbd v1.5.2PL0 Copyright (c) Steve Scherf et al.
# Submitted via: audiograbber 1.83.01
#
DISCID=020dcb12
DTITLE=Tardor - Es Mi Tango
DYEAR=1900
DGENRE=Tango
TTITLE0=Tardor
TTITLE1=Donde vives
TTITLE2=San Mori
TTITLE3=La Plazuela
TTITLE4=La Criollita
TTITLE5=Encantat
TTITLE6=La Barricada
TTITLE7=Color Del Vino
TTITLE8=La Villorita
TTITLE9=Zumo De Limon
TTITLE10=El Chacal
TTITLE11=Flan Y Cafecito
TTITLE12=Tanto Más
TTITLE13=One Note Tango
TTITLE14=Es Mi Tango
TTITLE15=Sombras De Ojos
TTITLE16=Árido
TTITLE17=El Rey Del Café
EXTD=
EXTT0=
EXTT1=
EXTT2=
EXTT3=
EXTT4=
EXTT5=
EXTT6=
EXTT7=
EXTT8=
EXTT9=
EXTT10=
EXTT11=
EXTT12=
EXTT13=
EXTT14=
EXTT15=
EXTT16=
EXTT17=
PLAYORDER=
